# xmcd CD database file
#
# Track frame offsets:
#	150
#	9824
#	27132
#	50303
#	70024
#	89756
#	112945
#	133622
#	158436
#	175456
#	193836
#	222504
#	242303
#	264663
#
# Disc length: 4440 seconds
#
# Revision: 4
# Processed by: cddbd v1.5.1PL0 Copyright (c) Steve Scherf et al.
# Submitted via: CDex 1.51
#
DISCID=b411560e
DTITLE=Broken Social Scene - You Forgot it in People
DYEAR=2002
DGENRE=Rock
TTITLE0=Capture the Flag
TTITLE1=KC Accidental
TTITLE2=Stars and Sons
TTITLE3=Almost Crimes (Radio Kills Remix)
TTITLE4=Looks Just Like the Sun
TTITLE5=Pacific Theme
TTITLE6=Anthems for a Seventeen Year-old Girl
TTITLE7=Cause=Time
TTITLE8=Late Nineties Bedroom Rock for the Missionaries
TTITLE9=Shampoo Suicide
TTITLE10=Lover's Spit
TTITLE11=I'm Still Your fag
TTITLE12=Pitter Patter Goes my Heart
TTITLE13=DATA
EXTD=YEAR: 2002
EXTT0=
EXTT1=
EXTT2=
EXTT3=
EXTT4=
EXTT5=
EXTT6=
EXTT7=
EXTT8=
EXTT9=
EXTT10=
EXTT11=
EXTT12=
EXTT13=
PLAYORDER=
